<?xml version="1.0" encoding="utf-8"?>
<!-- Generator: Adobe Illustrator 24.0.2, SVG Export Plug-In . SVG Version: 6.00 Build 0)  -->
<svg version="1.1" id="Warstwa_1" xmlns="http://www.w3.org/2000/svg" xmlns:xlink="http://www.w3.org/1999/xlink" x="0px" y="0px"
	 viewBox="0 0 500 500" style="enable-background:new 0 0 500 500;" xml:space="preserve">
<style type="text/css">
	.st0{fill:#662483;}
</style>
<g>
	<path class="st0" d="M403.02,226.92c-3.04-11.92-20.27-21.16-52.7-28.12c-38.14-7.29-76.9-10.73-115.72-10.28
		c-38.82-0.45-77.59,2.99-115.72,10.28c-35.88,7.69-53.33,18.15-53.33,31.99c-0.23,46.36,15.57,91.39,44.72,127.44
		c-60.25,8.95-90.83,22.92-90.83,41.6c0,46,92.5,80.68,215.16,80.68c122.65,0,215.15-34.68,215.15-80.68
		c0-11.73-11.81-21.41-35.86-29.38c44.16-16.02,66.59-38.36,66.59-66.67c0.97-21.32-7.5-41.97-23.17-56.45
		C441.94,234.76,422.86,227.59,403.02,226.92L403.02,226.92z M399.33,272.92c11.09,0.32,21.72,4.53,30.02,11.89
		c5.21,5.81,6.34,14.22,2.85,21.2c-4.26,8.69-15.03,13.9-26.04,18.25c-9.83,3.81-19.89,6.98-30.14,9.49
		C387.08,314.88,394.95,294.34,399.33,272.92L399.33,272.92z M80.91,230.8c0.19-1.8,7.94-9.99,42.37-17.21
		c36.7-6.87,73.98-10.12,111.31-9.69c37.33-0.43,74.61,2.82,111.31,9.69c34.39,7.21,42.16,15.39,42.37,17.21
		c-0.05,0.19-0.13,0.37-0.23,0.53l-0.01,0.02c-0.95,1.66-5.42,5.79-18.72,10.39c-19.52-21.27-114.04-22.47-134.73-22.47
		c-20.69,0-115.2,1.2-134.72,22.47C84.79,236.51,81.04,231.86,80.91,230.8L80.91,230.8z M349.67,247.14
		c-3.81,0.85-7.76,1.67-11.95,2.43c-0.76,0.14-1.6,0.26-2.38,0.39c-3.72,0.65-7.53,1.27-11.49,1.84c-1.67,0.24-3.43,0.45-5.14,0.68
		c-3.22,0.43-6.47,0.85-9.82,1.22c-1.98,0.23-4.01,0.43-6.04,0.63c-3.25,0.33-6.54,0.64-9.88,0.92c-2.14,0.18-4.3,0.35-6.46,0.51
		c-3.42,0.25-6.9,0.47-10.4,0.68c-2.16,0.13-4.3,0.26-6.49,0.36c-3.86,0.19-7.77,0.32-11.7,0.45c-1.88,0.06-3.73,0.14-5.61,0.19
		c-5.85,0.14-11.75,0.22-17.7,0.22c-5.95,0-11.85-0.08-17.7-0.23c-1.88-0.05-3.73-0.13-5.59-0.18c-3.95-0.13-7.88-0.27-11.74-0.45
		c-2.16-0.11-4.29-0.23-6.42-0.36c-3.53-0.2-7.03-0.43-10.48-0.68c-2.15-0.16-4.28-0.33-6.39-0.51c-3.38-0.28-6.71-0.59-9.99-0.93
		c-1.99-0.2-3.99-0.4-5.94-0.62c-3.42-0.38-6.75-0.81-10.03-1.25c-1.64-0.22-3.31-0.42-4.91-0.65c-4.2-0.6-8.26-1.26-12.17-1.95
		c-0.55-0.1-1.15-0.18-1.69-0.28c-4.21-0.76-8.18-1.59-12.01-2.45c16.14-5.71,54.8-12.51,115.07-12.51
		C294.86,234.63,333.53,241.44,349.67,247.14L349.67,247.14z M82.04,250.82c6.38,3.21,13.04,5.78,19.92,7.7
		c30.96,9.09,80.55,14.53,132.64,14.53c13.02,0,25.89-0.34,38.34-0.99c31.82-1.08,63.44-5.62,94.28-13.53
		c6.9-1.93,13.59-4.52,19.99-7.74c-8.84,85.94-73.89,152.89-152.61,152.89c-39.22-0.32-76.61-16.64-103.53-45.17
		C103.16,329.1,85.9,291.19,82.04,250.82L82.04,250.82z M292.87,407.52c26.49,3.7,37.73,8.99,40.91,11.56
		c-5.76,4.95-32.94,13.36-82.34,15.09l-0.55,0.01c-4.46,0.13-9.08,0.18-13.7,0.2c-0.86,0.01-1.71,0.05-2.59,0.04
		c-0.06,0-0.12,0-0.18,0c-5.43,0-10.88-0.08-16.22-0.23h-0.06c-49.72-1.73-76.96-10.15-82.72-15.1c3.19-2.58,14.47-7.89,41.08-11.58
		C213.75,422.9,255.6,422.91,292.87,407.52L292.87,407.52z M34.81,399.84c0-3.48,15.2-18.23,88.18-27.85
		c9.29,9.16,19.61,17.21,30.76,23.99c-34.28,7.9-34.42,19-34.42,23.07c0.05,3.18,1.24,6.24,3.35,8.63
		C64.72,420,34.81,407.43,34.81,399.84L34.81,399.84z M234.6,465.16c-77.75,0-139.91-15.01-173.18-34.1
		c42.99,12.85,109.91,17.8,156.44,18.51c5.45,0.15,11.06,0.23,16.75,0.23c1.95,0,3.89,0,5.53-0.08c1.95,0,3.82,0,5.45-0.08l2.3-0.04
		c1.09-0.02,2.27-0.01,3.35-0.05c46.6-0.7,113.56-5.66,156.55-18.51C374.51,450.14,312.34,465.16,234.6,465.16L234.6,465.16z
		 M434.38,399.84c0,7.6-29.89,20.16-87.87,27.84c2.11-2.39,3.29-5.45,3.35-8.63c0-4.07-0.14-15.14-34.3-23.04
		c2.91-1.78,5.75-3.67,8.56-5.63c20.94-2.54,41.7-6.37,62.16-11.48C425.44,387.65,434.38,397.16,434.38,399.84L434.38,399.84z
		 M384.92,363.44c-0.25,0.04-0.49,0.09-0.73,0.15c-11.56,3.02-24.14,5.61-37.42,7.88c6.01-5.96,11.6-12.33,16.73-19.07
		c16.47-3.24,32.63-7.87,48.31-13.85c13.88-5.48,27.62-12.4,34.19-25.77c6.38-12.84,4.11-28.3-5.7-38.76
		c-10.53-9.72-24.11-15.47-38.41-16.27c0.66-5.07,1.13-10.21,1.41-15.4c15.98,0.64,31.33,6.4,43.77,16.45
		c12.33,11.61,18.94,28.07,18.04,44.99C465.12,335.38,421.65,353.64,384.92,363.44L384.92,363.44z M384.92,363.44"/>
	<path class="st0" d="M119.33,288.42c0-4.25-3.44-7.68-7.68-7.68c-4.24,0-7.68,3.44-7.68,7.68c0,4.24,3.44,7.68,7.68,7.68
		c0.76-0.01,1.51-0.14,2.23-0.38C117.11,294.77,119.33,291.79,119.33,288.42L119.33,288.42z M119.33,288.42"/>
	<path class="st0" d="M161.17,363.97c2.29,1.55,5.23,1.76,7.71,0.54c2.48-1.22,4.12-3.67,4.29-6.43c0.17-2.76-1.15-5.39-3.47-6.9
		c-15.94-10.34-29.48-23.99-39.69-40c-1.42-2.41-4.02-3.86-6.82-3.79c-2.79,0.07-5.32,1.65-6.62,4.12
		c-1.29,2.47-1.14,5.45,0.39,7.79C128.33,337.19,143.41,352.42,161.17,363.97L161.17,363.97z M161.17,363.97"/>
	<path class="st0" d="M201.61,67.83c-1.44-1.44-3.39-2.25-5.43-2.25c-2.04,0-3.99,0.81-5.43,2.25c-6.83,7.87-10.39,18.07-9.94,28.48
		c-0.45,10.38,3.07,20.53,9.85,28.4c3.91,5.05,5.86,11.33,5.52,17.71c0.34,6.37-1.62,12.64-5.51,17.7
		c-2.91,3.03-2.84,7.84,0.15,10.79c2.99,2.95,7.8,2.95,10.79,0c6.83-7.88,10.39-18.07,9.93-28.49c0.45-10.37-3.07-20.53-9.85-28.39
		c-3.9-5.05-5.86-11.34-5.52-17.71c-0.33-6.33,1.59-12.57,5.43-17.62c1.44-1.44,2.25-3.4,2.25-5.43
		C203.86,71.23,203.05,69.27,201.61,67.83L201.61,67.83z M201.61,67.83"/>
	<path class="st0" d="M247.71,21.73c-1.44-1.44-3.39-2.25-5.43-2.25c-2.04,0-3.99,0.81-5.43,2.25c-6.83,7.87-10.39,18.07-9.94,28.48
		c-0.45,10.37,3.07,20.53,9.85,28.39c3.91,5.05,5.86,11.34,5.52,17.71c0.34,6.37-1.61,12.65-5.51,17.7
		c-2.91,3.03-2.85,7.84,0.15,10.79c2.99,2.95,7.8,2.95,10.79,0c6.83-7.88,10.39-18.07,9.94-28.49c0.45-10.37-3.07-20.53-9.85-28.39
		c-3.9-5.05-5.86-11.34-5.52-17.71c-0.33-6.33,1.59-12.58,5.43-17.62c1.44-1.44,2.25-3.39,2.25-5.44
		C249.96,25.12,249.15,23.17,247.71,21.73L247.71,21.73z M247.71,21.73"/>
	<path class="st0" d="M293.81,67.83c-1.44-1.44-3.39-2.25-5.43-2.25c-2.04,0-3.99,0.81-5.43,2.25c-6.83,7.87-10.39,18.07-9.93,28.48
		c-0.45,10.38,3.07,20.53,9.85,28.4c3.9,5.05,5.86,11.33,5.52,17.71c0.33,6.37-1.61,12.64-5.51,17.7
		c-2.91,3.03-2.85,7.84,0.15,10.79c2.99,2.95,7.8,2.95,10.79,0c6.83-7.88,10.39-18.07,9.94-28.49c0.45-10.37-3.07-20.53-9.85-28.39
		c-3.91-5.05-5.86-11.34-5.52-17.71c-0.34-6.33,1.59-12.57,5.43-17.62c1.44-1.44,2.25-3.4,2.25-5.43
		C296.07,71.23,295.26,69.27,293.81,67.83L293.81,67.83z M293.81,67.83"/>
</g>
</svg>
