<?xml version="1.0" encoding="utf-8"?>
<!-- Generator: Adobe Illustrator 24.0.2, SVG Export Plug-In . SVG Version: 6.00 Build 0)  -->
<svg version="1.1" id="Warstwa_1" xmlns="http://www.w3.org/2000/svg" xmlns:xlink="http://www.w3.org/1999/xlink" x="0px" y="0px"
	 viewBox="0 0 500 500" style="enable-background:new 0 0 500 500;" xml:space="preserve">
<style type="text/css">
	.st0{fill:#662483;}
</style>
<path class="st0" d="M74.31,469.47c-18.36,0-33.89-14.33-35.37-32.61l-8.28-102.13c-0.88-10.87,2.71-21.27,10.11-29.29
	c7.4-8.02,17.47-12.44,28.36-12.44h31.75l3.22-65.93l-1.75-1.25c-6.74-4.8-11.59-11.83-13.64-19.82
	c-7.11-27.73-7.13-55.85-0.06-83.58c3.31-12.92,13.46-22.77,26.48-25.73l3.08-0.7V52.87c0-12.32,10.02-22.34,22.33-22.34h41.48
	c12.32,0,22.34,10.02,22.34,22.34V95.8h91.26V52.87c0-12.32,10.02-22.34,22.34-22.34h41.48c12.32,0,22.34,10.02,22.34,22.34V96
	l3.07,0.69c13.04,2.96,23.2,12.85,26.5,25.83c7.02,27.56,7.03,55.5,0.04,83.03c-2.08,8.15-6.96,15.33-13.77,20.2l-1.75,1.25
	l3.23,65.99h31.75c10.89,0,20.97,4.42,28.37,12.44c7.4,8.03,10.99,18.43,10.11,29.29l-8.28,102.13
	c-1.48,18.29-17.01,32.62-35.36,32.62H74.31z M425.7,451.07c8.83,0,16.32-6.9,17.04-15.7l4.72-58.34h-44.22l0.2,4.14
	c0.49,10.03,0.94,18.29,1.32,25.15l0.09,1.73c1.45,26.52,1.68,30.59-0.85,37.76l-1.86,5.26H425.7z M370.49,451.07
	c4.66,0,9.17-1.94,12.4-5.32c3.25-3.41,4.91-7.88,4.68-12.61c-0.23-4.69-9.29-189.67-9.83-200.75h-36.41l0.04,3.99
	c0.27,28.45-3.01,57.27-5.9,82.69L334,332.16l15.62,118.91H370.49z M331.07,451.07l-14.4-109.6H183.33l-14.4,109.6H331.07z
	 M112.43,433.15c-0.23,4.71,1.43,9.19,4.67,12.6c3.22,3.38,7.74,5.32,12.4,5.32h20.87l15.63-118.97l-1.3-11.37
	c-3.13-27.57-6.35-55.98-6.08-84.36l0.04-3.99h-36.41C121.73,243.42,112.73,427.13,112.43,433.15z M57.27,435.36
	c0.71,8.81,8.19,15.71,17.04,15.71h23.56l-1.85-5.26c-2.45-6.97-2.39-9.69-0.89-37l0.03-0.58c0.39-7.21,0.88-16.06,1.42-27.06
	l0.2-4.14H52.55L57.27,435.36z M448.94,358.63l2.06-25.4c0.45-5.62-1.48-11.22-5.29-15.35c-3.81-4.13-9.23-6.5-14.86-6.5h-30.84
	l2.31,47.25H448.94z M97.67,358.63l2.31-47.25H69.14c-5.63,0-11.05,2.37-14.86,6.5c-3.81,4.13-5.74,9.73-5.29,15.35l2.06,25.4H97.67
	z M316.5,323.07l0.65-5.76c2.86-25.15,6.1-53.62,5.81-81.01l-0.04-3.91h-37.45v20.43c0,9.9-8.06,17.96-17.96,17.96h-35.05
	c-9.9,0-17.96-8.05-17.96-17.96v-20.43h-37.46l-0.04,3.91c-0.28,27.4,2.96,55.91,5.81,81.07l0.65,5.7H316.5z M267.09,252.39v-58.38
	h-34.17v58.38H267.09z M376.97,214c7.83,0,14.65-5.34,16.6-12.99c6.23-24.52,6.22-49.4-0.04-73.96
	c-1.92-7.57-8.73-12.85-16.56-12.85H123.02c-7.82,0-14.62,5.25-16.54,12.77c-6.3,24.69-6.28,49.74,0.05,74.45
	c1.91,7.41,8.69,12.58,16.49,12.58h91.5v-20.43c0-9.9,8.06-17.96,17.96-17.96h35.05c9.9,0,17.96,8.06,17.96,17.96V214H376.97z
	 M363.39,95.8V48.93h-49.36V95.8H363.39z M185.97,95.8V48.93h-49.36V95.8H185.97z"/>
</svg>
