<?xml version="1.0" encoding="utf-8"?>
<!-- Generator: Adobe Illustrator 24.0.2, SVG Export Plug-In . SVG Version: 6.00 Build 0)  -->
<svg version="1.1" id="Warstwa_1" xmlns="http://www.w3.org/2000/svg" xmlns:xlink="http://www.w3.org/1999/xlink" x="0px" y="0px"
	 viewBox="0 0 500 500" style="enable-background:new 0 0 500 500;" xml:space="preserve">
<style type="text/css">
	.st0{fill:#662483;}
</style>
<g>
	<path class="st0" d="M193.39,60.54c1.43,1.43,3.31,2.15,5.19,2.15c1.88,0,3.76-0.72,5.19-2.15c2.86-2.87,2.86-7.52,0-10.39
		l-22.04-22.04c-2.86-2.87-7.51-2.87-10.38,0c-2.87,2.87-2.87,7.52,0,10.38L193.39,60.54z M193.39,60.54"/>
	<path class="st0" d="M257.35,62.69c1.88,0,3.75-0.72,5.19-2.15l22.04-22.04c2.86-2.86,2.86-7.51,0-10.38
		c-2.87-2.87-7.52-2.87-10.39,0l-22.04,22.04c-2.87,2.87-2.87,7.52,0,10.39C253.59,61.98,255.46,62.69,257.35,62.69L257.35,62.69z
		 M257.35,62.69"/>
	<path class="st0" d="M227.96,62.69c4.06,0,7.35-3.29,7.35-7.35V25.96c0-4.06-3.29-7.35-7.35-7.35c-4.06,0-7.35,3.29-7.35,7.35
		v29.38C220.62,59.4,223.91,62.69,227.96,62.69L227.96,62.69z M227.96,62.69"/>
	<path class="st0" d="M116.87,172.86l22.94,2.86v70.61c0,4.05,3.29,7.34,7.35,7.34c4.06,0,7.35-3.29,7.35-7.34v-68.77l21.12,2.64
		c0.31,0.04,0.62,0.06,0.93,0.06c3.65,0,6.81-2.72,7.27-6.43c0.5-4.02-2.35-7.69-6.38-8.2l-22.94-2.86V143.5
		c0-4.06-3.29-7.35-7.35-7.35c-4.06,0-7.35,3.29-7.35,7.35v17.42l-21.12-2.64c-4.01-0.52-7.7,2.35-8.2,6.38
		C109.99,168.68,112.84,172.35,116.87,172.86L116.87,172.86z M116.87,172.86"/>
	<path class="st0" d="M224.97,407.43c-2.86-2.88-7.52-2.88-10.39-0.02l-8.32,8.29l-8.28-8.32c-2.86-2.88-7.51-2.88-10.38-0.02
		c-2.88,2.86-2.89,7.51-0.02,10.39l8.28,8.32l-8.31,8.28c-2.88,2.86-2.89,7.51-0.02,10.38c1.43,1.44,3.32,2.16,5.21,2.16
		c1.87,0,3.75-0.72,5.18-2.14l8.32-8.29l8.28,8.32c1.43,1.44,3.32,2.16,5.21,2.16c1.87,0,3.75-0.72,5.18-2.14
		c2.88-2.86,2.88-7.51,0.02-10.39l-8.29-8.32l8.31-8.28C227.82,414.96,227.83,410.3,224.97,407.43L224.97,407.43z M224.97,407.43"/>
	<path class="st0" d="M462.8,333.54c-0.49-1.96-1.78-3.63-3.54-4.61l-40.31-22.55V130.73c0-13.8-9.18-25.82-22.14-29.82V66.63
		c0-3.54-2.53-6.58-6.01-7.23C300.44,42.72,244.67,81.4,227.96,95.4c-16.72-14-72.53-52.7-162.94-35.99
		c-3.48,0.65-6.01,3.68-6.01,7.23v34.31c-12.91,4.02-22.04,16.03-22.04,29.79v201.81c0,17.27,14.04,31.31,31.31,31.31h159.73
		c8.47,16.8,26.19,39.16,62.87,51.39c0.71,0.24,1.52,0.36,2.26,0.38c0.11,0,9.74,0.32,21.64,7.66l-5.84,8.86
		c-2.17,3.28-1.37,7.69,1.83,10L363.23,480c1.27,0.91,2.77,1.38,4.3,1.38c0.46,0,0.92-0.04,1.38-0.13c1.98-0.38,3.73-1.56,4.81-3.27
		l88.15-138.7C462.96,337.58,463.29,335.51,462.8,333.54L462.8,333.54z M404.26,130.73v167.64c-2.58-1.01-5.4-0.5-7.44,1.3V116.93
		C401.32,119.94,404.26,125.05,404.26,130.73L404.26,130.73z M382.12,72.83v214.75c-2.35-6.14-3.67-12.69-3.67-19.41
		c0-11.19-1.79-22.25-5.33-32.88l-17.38-52.12c-5.09-15.28-20.84-24.39-36.61-21.24c-8.99,1.8-16.78,7.37-21.39,15.31
		c-4.6,7.93-5.58,17.46-2.68,26.17l19.12,57.37l-2.04,2.55c-10.41,13.01-14.21,29.17-13.47,44.82
		c-23.84,5.61-45.15,13.93-63.38,25.03V108.49C246.01,99.09,297.05,59.34,382.12,72.83L382.12,72.83z M73.71,72.83
		c84.81-13.41,136.16,26.32,146.91,35.69v224.63C173.56,304.46,117.61,300,87.42,300c-5.49,0-10.14,0.15-13.71,0.32V72.83z
		 M51.67,332.55V130.73c0-5.64,2.89-10.72,7.34-13.74v191.2c0,2.07,0.88,4.06,2.42,5.45c1.54,1.38,3.6,2.05,5.67,1.86
		c0.9-0.09,88.06-8.36,151.29,33.66H68.29C59.13,349.17,51.67,341.71,51.67,332.55L51.67,332.55z M294.6,400.99
		c-37.92-12.97-51.95-37.92-56.98-51.83c17.72-11.78,38.88-20.66,63.06-26.49c1.93,8.39,5.08,16.27,9.15,22.97
		c1.38,2.28,3.8,3.53,6.28,3.53c1.3,0,2.62-0.35,3.81-1.07c3.46-2.11,4.57-6.62,2.46-10.09c-10.71-17.62-13.91-46.58,1.24-65.53
		l4.54-5.67c1.55-1.95,2.02-4.55,1.23-6.92l-20.39-61.15c-1.57-4.71-1.04-9.86,1.45-14.15c2.49-4.28,6.7-7.3,11.57-8.27
		c8.5-1.7,17.03,3.22,19.78,11.48l17.38,52.12c3.04,9.13,4.58,18.63,4.58,28.23c0,18.66,7.61,36.37,20.87,49.31l-61.74,93.54
		C309.8,402.81,298.46,401.26,294.6,400.99L294.6,400.99z M365.51,463.52l-40.42-29.18l78.88-119.51l41.34,23.13L365.51,463.52z
		 M365.51,463.52"/>
	<path class="st0" d="M356.51,426.83c-3.75,0-6.8,3.05-6.8,6.81s3.04,6.81,6.8,6.81c3.77,0,6.81-3.05,6.81-6.81
		S360.27,426.83,356.51,426.83L356.51,426.83z M356.51,426.83"/>
	<path class="st0" d="M92.07,404.8c-3.76,0-6.81,3.05-6.81,6.81c0,3.76,3.04,6.81,6.81,6.81c3.75,0,6.8-3.05,6.8-6.81
		C98.88,407.85,95.83,404.8,92.07,404.8L92.07,404.8z M92.07,404.8"/>
</g>
</svg>
